<svg id="Capa_1" enable-background="new 0 0 512 512" height="512" viewBox="0 0 512 512" width="512" xmlns="http://www.w3.org/2000/svg"><g><g><path d="m256 375.729c80.56-35.81 139.54-14.3 186 0v-280h60v340h-492v-340h60v280c46.46-14.299 105.44-35.81 186 0z" fill="#cef"/><path d="m196 78.709c19.66 2.74 39.85 8.06 60 17.02 80.04-35.57 160.74-13.93 206 0v300c-46.46-14.3-125.44-35.81-206 0-80.56-35.81-159.54-14.3-206 0v-300c21.79-6.71 51.79-15.2 85.97-18.23l.03.3 28 19.93z" fill="#fff"/><path d="m196 78.709v97.02l-30-40-30 40v-97.93l-.03-.3c18.95-1.69 39.19-1.7 60.03 1.21z" fill="#9df"/></g><g fill="#80aaff"><path d="m218.538 233.945c-17.633-5.04-36.295-7.595-55.468-7.595-28.109 0-58.285 5.248-75.584 9.741-5.345 1.388-8.553 6.847-7.165 12.193 1.169 4.503 5.227 7.489 9.672 7.488.832 0 1.678-.105 2.521-.324 16.159-4.197 44.333-9.099 70.556-9.099 17.313 0 34.126 2.296 49.972 6.825 5.309 1.516 10.845-1.557 12.363-6.867s-1.557-10.845-6.867-12.362z"/><g><path d="m502 85.729h-38.505c-57.133-17.461-131.778-32.851-207.495-.893-67.77-28.549-137.14-20.652-207.491.893h-38.509c-5.523 0-10 4.477-10 10v340c0 5.523 4.477 10 10 10h492c5.523 0 10-4.477 10-10v-340c0-5.522-4.477-10-10-10zm-236 16.611c66.692-27.236 133.512-14.73 186 .815v279.143c-23.25-6.732-50.053-13.112-79.46-15.332-37.893-2.861-73.658 1.821-106.54 13.921zm-120-15.53c13.726-.776 27.116-.512 40 .788v58.131l-12-16c-1.889-2.518-4.853-4-8-4s-6.111 1.482-8 4l-12 16zm-13.162 98.406c4.083 1.361 8.579-.043 11.162-3.487l22-29.333 22 29.333c1.925 2.567 4.914 4.001 8.001 4.001 1.055 0 2.121-.167 3.161-.514 4.083-1.361 6.838-5.183 6.838-9.487v-85.206c13.827 2.667 27.226 6.609 40 11.815v278.548c-32.882-12.1-68.643-16.78-106.54-13.92-29.407 2.22-56.21 8.6-79.46 15.332v-279.152c19.195-5.724 41.35-11.453 66-14.526v87.109c0 4.305 2.754 8.126 6.838 9.487zm359.162 240.513h-472v-320h20v290c0 3.174 1.506 6.159 4.06 8.044 2.553 1.886 5.849 2.447 8.882 1.513 57.491-17.695 125.542-31.645 195.601-1.895 1.831 2.048 4.494 3.338 7.458 3.338 2.955 0 5.602-1.289 7.432-3.327 70.065-29.761 138.13-15.813 195.626 1.884 3.033.933 6.33.372 8.882-1.513 2.553-1.885 4.06-4.871 4.06-8.044v-290h20v320z"/><path d="m80.216 305.588c.995 4.706 5.148 7.934 9.773 7.934.686 0 1.381-.071 2.079-.218 20.584-4.352 48.481-7.164 71.072-7.164 16.902 0 33.696 1.597 49.913 4.747 5.424 1.051 10.67-2.489 11.723-7.91 1.053-5.422-2.488-10.67-7.91-11.723-17.471-3.393-35.547-5.114-53.727-5.114-23.861 0-53.382 2.982-75.208 7.596-5.403 1.142-8.857 6.449-7.715 11.852z"/><path d="m422.01 313.521c4.625 0 8.778-3.228 9.773-7.934 1.143-5.403-2.312-10.71-7.715-11.852-21.827-4.615-51.348-7.596-75.208-7.596-18.995 0-37.824 1.871-55.963 5.561-5.412 1.101-8.907 6.381-7.806 11.793s6.381 8.906 11.792 7.806c16.83-3.424 34.317-5.159 51.977-5.159 22.59 0 50.488 2.812 71.072 7.164.697.147 1.393.217 2.078.217z"/></g><path d="m293.004 234.082c-5.306 1.533-8.364 7.077-6.831 12.383s7.079 8.363 12.382 6.832c15.955-4.61 32.904-6.947 50.375-6.947 26.223 0 54.397 4.901 70.556 9.099.843.219 1.689.324 2.521.324 4.445 0 8.502-2.986 9.672-7.488 1.389-5.345-1.819-10.804-7.165-12.193-17.299-4.494-47.475-9.741-75.584-9.741-19.35-.001-38.166 2.6-55.926 7.731z"/><path d="m314.317 149.212c-5.444.929-9.104 6.096-8.175 11.54s6.095 9.103 11.54 8.175c10.02-1.71 20.533-2.577 31.248-2.577 16.136 0 37.17 1.91 51.15 4.644.648.127 1.293.188 1.93.188 4.686 0 8.87-3.311 9.803-8.083 1.06-5.42-2.474-10.673-7.895-11.733-15.1-2.953-37.712-5.016-54.989-5.016-11.838 0-23.483.963-34.612 2.862z"/></g></g></svg>