<svg height="512pt" viewBox="0 -25 512 512" width="512pt" xmlns="http://www.w3.org/2000/svg"><g fill-rule="evenodd"><path d="m160.746094 201.605469v-129.03125c-4.757813 1.839843-9.953125 2.832031-15.351563 2.832031-5.429687 0-10.59375-.992188-15.351562-2.832031v129.03125c4.933593-1.140625 10.066406-1.78125 15.351562-1.78125 5.28125 0 10.417969.640625 15.351563 1.78125zm0 0" fill="#e8e8e8"/><path d="m212.167969 256.363281c0-31.628906-21.949219-58.117187-51.421875-65.039062-4.933594-1.167969-10.070313-1.78125-15.351563-1.78125-5.285156 0-10.417969.613281-15.351562 1.78125-29.476563 6.921875-51.421875 33.410156-51.421875 65.039062 0 2.132813.113281 4.234375.289062 6.335938h132.960938c.179687-2.097657.296875-4.203125.296875-6.335938zm0 0" fill="#b3b3b3"/><path d="m366.664062 201.605469v-129.03125c-4.757812 1.839843-9.949218 2.832031-15.347656 2.832031-5.429687 0-10.59375-.992188-15.382812-2.832031v129.03125c4.933594-1.140625 10.070312-1.78125 15.382812-1.78125 5.28125 0 10.417969.640625 15.347656 1.78125zm0 0" fill="#e8e8e8"/><path d="m182.632812 256.363281c0-15.097656-8.988281-28.09375-21.886718-33.964843-4.671875-2.132813-9.863282-3.300782-15.351563-3.300782s-10.683593 1.167969-15.351562 3.300782c-12.898438 5.871093-21.890625 18.867187-21.890625 33.964843 0 2.164063.175781 4.265625.554687 6.335938l35.316407 13.378906 38.054687-13.378906c.351563-2.070313.554687-4.171875.554687-6.335938zm0 0" fill="#808080"/><path d="m188.234375 42.84375c0-23.65625-19.171875-42.84375-42.839844-42.84375s-42.84375 19.1875-42.84375 42.84375c0 18.28125 11.410157 33.847656 27.492188 40.042969 4.757812 1.839843 9.921875 2.832031 15.351562 2.832031 5.398438 0 10.59375-.992188 15.351563-2.832031 16.078125-6.195313 27.488281-21.761719 27.488281-40.042969zm0 0" fill="#ffcc73"/><path d="m418.058594 256.363281c0-31.628906-21.917969-58.117187-51.394532-65.039062-4.929687-1.167969-10.066406-1.78125-15.347656-1.78125-5.3125 0-10.449218.613281-15.382812 1.78125-29.476563 6.921875-51.390625 33.410156-51.390625 65.039062 0 2.132813.085937 4.234375.292969 6.335938l67.847656 16.152343 65.082031-16.152343c.207031-2.097657.292969-4.203125.292969-6.335938zm0 0" fill="#b3b3b3"/><path d="m388.523438 256.363281c0-15.097656-8.960938-28.09375-21.859376-33.964843-4.695312-2.132813-9.890624-3.300782-15.347656-3.300782-5.488281 0-10.683594 1.167969-15.382812 3.300782-12.898438 5.871093-21.855469 18.867187-21.855469 33.964843 0 2.164063.175781 4.265625.523437 6.335938l35.34375 13.378906 38.054688-13.378906c.351562-2.070313.523438-4.171875.523438-6.335938zm0 0" fill="#808080"/><path d="m394.128906 42.84375c0-23.65625-19.175781-42.84375-42.8125-42.84375-23.667968 0-42.84375 19.1875-42.84375 42.84375 0 18.28125 11.410156 33.847656 27.460938 40.042969 4.789062 1.839843 9.953125 2.832031 15.382812 2.832031 5.398438 0 10.59375-.992188 15.347656-2.832031 16.082032-6.195313 27.464844-21.761719 27.464844-40.042969zm0 0" fill="#ffcc73"/><path d="m481.910156 366.644531v-93.542969c0-5.726562-4.667968-10.398437-10.386718-10.398437h-431.042969c-5.722657 0-10.390625 4.671875-10.390625 10.398437v93.542969l217.710937 26.226563zm0 0" fill="#55b8e6"/><path d="m481.910156 366.644531h-472.367187c-4.40625 0-8.113281 2.980469-9.222657 7.039063-.203124.789062-.320312 1.636718-.320312 2.511718v76.253907c0 .847656.117188 1.695312.320312 2.480469 1.109376 4.0625 4.816407 7.070312 9.222657 7.070312h492.914062c5.253907 0 9.542969-4.292969 9.542969-9.550781v-76.253907c0-5.257812-4.289062-9.550781-9.542969-9.550781zm0 0" fill="#808080"/><path d="m126.917969 42.84375c0-19.421875 12.929687-35.832031 30.644531-41.089844-3.851562-1.140625-7.9375-1.753906-12.167969-1.753906-23.667969 0-42.839843 19.1875-42.839843 42.84375 0 18.28125 11.410156 33.847656 27.488281 40.042969 4.757812 1.839843 9.921875 2.832031 15.351562 2.832031 4.230469 0 8.316407-.613281 12.167969-1.753906-1.078125-.320313-2.128906-.667969-3.179688-1.078125-4.667968-1.8125-8.957031-4.382813-12.664062-7.625-5.078125-4.410157-9.136719-9.988281-11.675781-16.324219-2.015625-4.964844-3.125-10.398438-3.125-16.09375zm0 0" fill="#f59556"/><path d="m332.8125 42.84375c0-19.421875 12.929688-35.832031 30.671875-41.089844-3.851563-1.140625-7.9375-1.753906-12.167969-1.753906-23.667968 0-42.84375 19.1875-42.84375 42.84375 0 18.28125 11.410156 33.847656 27.460938 40.042969 4.789062 1.839843 9.953125 2.832031 15.382812 2.832031 4.230469 0 8.316406-.613281 12.167969-1.753906-1.078125-.320313-2.160156-.667969-3.179687-1.078125-4.699219-1.8125-8.960938-4.382813-12.695313-7.625-5.078125-4.410157-9.105469-9.988281-11.675781-16.324219-2.011719-4.964844-3.121094-10.398438-3.121094-16.09375zm0 0" fill="#f59556"/><path d="m145.394531 189.542969v-103.824219c-5.429687 0-10.59375-.992188-15.351562-2.832031v108.4375c4.933593-1.167969 10.066406-1.78125 15.351562-1.78125zm0 0" fill="#ccc"/><path d="m351.316406 189.542969v-103.824219c-5.429687 0-10.59375-.992188-15.382812-2.832031v108.4375c4.933594-1.167969 10.070312-1.78125 15.382812-1.78125zm0 0" fill="#ccc"/><path d="m156.65625 220.820312c-3.558594-1.109374-7.351562-1.722656-11.261719-1.722656-5.488281 0-10.683593 1.167969-15.351562 3.300782-12.898438 5.871093-21.890625 18.867187-21.890625 33.964843 0 2.164063.175781 4.265625.554687 6.335938h22.503907c-.351563-2.070313-.527344-4.171875-.527344-6.335938 0-15.097656 8.960937-28.09375 21.859375-33.964843 1.34375-.613282 2.714843-1.136719 4.113281-1.578126zm0 0" fill="#525252"/><path d="m362.550781 220.820312c-3.53125-1.109374-7.324219-1.722656-11.234375-1.722656-5.488281 0-10.683594 1.167969-15.382812 3.300782-12.898438 5.871093-21.855469 18.867187-21.855469 33.964843 0 2.164063.175781 4.265625.523437 6.335938h22.53125c-.351562-2.070313-.554687-4.171875-.554687-6.335938 0-15.097656 8.988281-28.09375 21.886719-33.964843 1.3125-.613282 2.683594-1.136719 4.085937-1.578126zm0 0" fill="#525252"/><path d="m59.59375 273.101562c0-5.726562 4.671875-10.398437 10.390625-10.398437h-29.503906c-5.722657 0-10.390625 4.671875-10.390625 10.398437v93.542969h29.503906zm0 0" fill="#507fcf"/><path d="m95.953125 256.363281c0-25.027343 13.71875-46.84375 34.089844-58.292969 5.339843-3.007812 11.179687-5.3125 17.308593-6.746093 2.1875-.523438 4.433594-.933594 6.710938-1.226563-2.832031-.382812-5.71875-.554687-8.667969-.554687-5.28125 0-10.417969.613281-15.351562 1.78125-29.476563 6.921875-51.421875 33.410156-51.421875 65.039062 0 2.132813.117187 4.234375.289062 6.335938h17.335938c-.203125-2.097657-.292969-4.203125-.292969-6.335938zm0 0" fill="#999"/><path d="m305.203125 256.363281c0-23.625 12.257813-44.390625 30.730469-56.273437 6.246094-4.03125 13.222656-7.011719 20.664062-8.765625 1.664063-.410157 3.324219-.730469 5.046875-.992188-3.382812-.527343-6.828125-.789062-10.332031-.789062-5.3125 0-10.445312.613281-15.378906 1.78125-29.476563 6.921875-51.394532 33.410156-51.394532 65.039062 0 2.132813.089844 4.234375.292969 6.335938h20.664063c-.203125-2.097657-.292969-4.203125-.292969-6.335938zm0 0" fill="#999"/><path d="m35.28125 452.449219v-76.253907c0-.875.117188-1.722656.351562-2.511718.671876-2.484375 2.335938-4.585938 4.554688-5.839844 1.371094-.761719 2.976562-1.199219 4.640625-1.199219h-35.285156c-4.40625 0-8.113281 2.976563-9.222657 7.039063-.203124.789062-.320312 1.636718-.320312 2.511718v76.253907c0 .847656.117188 1.695312.320312 2.480469 1.109376 4.0625 4.816407 7.070312 9.222657 7.070312h35.28125c-4.375 0-8.082031-3.007812-9.191407-7.070312-.234374-.785157-.351562-1.632813-.351562-2.480469zm0 0" fill="#525252"/><path d="m133.429688 321.40625v-14.894531c0-5.023438-4.117188-9.144531-9.136719-9.144531h-33.734375c-5.046875 0-9.164063 4.117187-9.164063 9.144531v14.894531c0 5.050781 4.117188 9.167969 9.164063 9.167969h33.734375c5.019531 0 9.136719-4.117188 9.136719-9.167969zm0 0" fill="#fa6969"/><path d="m226.085938 306.511719c0-5.023438-4.113282-9.140625-9.132813-9.140625h-33.738281c-5.046875 0-9.160156 4.117187-9.160156 9.140625v14.894531c0 5.050781 4.113281 9.167969 9.160156 9.167969h33.738281c5.019531 0 9.132813-4.117188 9.132813-9.167969zm0 0" fill="#aaf589"/><path d="m329.046875 321.40625v-14.894531c0-5.023438-4.113281-9.144531-9.164063-9.144531h-33.707031c-5.046875 0-9.164062 4.117187-9.164062 9.144531v14.894531c0 5.050781 4.117187 9.167969 9.164062 9.167969h33.707031c5.050782 0 9.164063-4.117188 9.164063-9.167969zm0 0" fill="#fa6969"/><path d="m421.707031 306.511719c0-5.023438-4.117187-9.140625-9.164062-9.140625h-33.707031c-5.050782 0-9.164063 4.117187-9.164063 9.140625v14.894531c0 5.050781 4.113281 9.167969 9.164063 9.167969h33.707031c5.046875 0 9.164062-4.117188 9.164062-9.167969zm0 0" fill="#aaf589"/></g></svg>