<svg id="Line" height="512" viewBox="0 0 36 36" width="512" xmlns="http://www.w3.org/2000/svg"><path d="m1.063 15.31c3.655 5.872 3.123 11.798 4.885 14.628s7.088 7.76 20.105-.343 9.951-17.286 8.014-20.399c-9.072-14.574-39.477-4.285-33.004 6.114z" fill="#efefef"/><g fill="#a4afc1"><path d="m31.493 6.911h1v2h-1z" transform="matrix(.707 -.707 .707 .707 3.777 24.94)"/><path d="m27.427 2.845h1v2h-1z" transform="matrix(.707 -.707 .707 .707 5.458 20.87)"/><path d="m31.17 3.346h2v1h-2z" transform="matrix(.707 -.707 .707 .707 6.703 23.874)"/></g><path d="m13.25 24.25h-1.5c-1.105 0-2-.895-2-2v-10.5c0-1.105.895-2 2-2h10.5c1.105 0 2 .895 2 2v12.5z" fill="#f3f3f1"/><path d="m16.25 21.25h-2.5c-.552 0-1-.448-1-1v-6.5c0-.552.448-1 1-1h3.086c.265 0 .52.105.707.293l3.414 3.414c.188.188.293.442.293.707v3.086c0 .552-.448 1-1 1z" fill="#2fdf84"/><path d="m28.267 21.382.974 6.784c.006.044.01.089.01.134 0 .525-.432.95-.964.95-.349 0-.655-.183-.824-.456l-1.787-2.888c-.175-.283-.487-.456-.823-.456h-4.703c-.336 0-.648.173-.823.456l-1.787 2.888c-.169.274-.475.456-.824.456-.533 0-.964-.425-.964-.95 0-.046.003-.09.01-.134l.974-6.784v.002c.135-.922.935-1.634 1.909-1.634.575 0 1.087.247 1.441.641.179.199.436.309.706.309h3.421c.269 0 .527-.111.706-.309.354-.394.866-.641 1.441-.641.974 0 1.774.712 1.909 1.634z" fill="#2fdf84"/><path d="m13.75 24.25h-2c-1.1 0-2-.9-2-2v-10.5c0-1.1.9-2 2-2h2c-1.1 0-2 .9-2 2v10.5c0 1.1.9 2 2 2z" fill="#d5dbe1"/><path d="m15.75 21.25h-2c-.55 0-1-.45-1-1v-6.5c0-.55.45-1 1-1h2c-.55 0-1 .45-1 1v6.5c0 .55.45 1 1 1z" fill="#00b871"/><path d="m18.64 19.75c.37 0 .71.1 1 .28-.48.29-.82.78-.91 1.35l-.97 6.79c-.01.04-.01.08-.01.13 0 .04 0 .09.01.13l-.22.36c-.17.28-.48.46-.83.46-.53 0-.96-.43-.96-.95 0-.05 0-.09.01-.13l.97-6.79c.14-.92.94-1.63 1.91-1.63z" fill="#00b871"/><path d="m28.286 30c-.602 0-1.148-.304-1.462-.812l-1.787-2.888c-.038-.062-.109-.1-.186-.1h-4.703c-.076 0-.147.038-.186.1l-1.787 2.889c-.313.507-.86.811-1.461.811-.945 0-1.714-.763-1.714-1.7 0-.084.006-.167.019-.249l.973-6.775c.19-1.298 1.33-2.275 2.651-2.275.763 0 1.491.324 1.999.89.035.038.089.061.148.061h3.42c.06 0 .113-.022.149-.062.507-.566 1.236-.89 1.998-.89 1.321 0 2.462.979 2.651 2.275l-.051.007.051-.007.974 6.784c.012.074.018.157.018.241 0 .937-.769 1.7-1.714 1.7zm-8.138-5.3h4.703c.592 0 1.151.311 1.461.811l1.787 2.889c.099.16.4.083.4-.1l-.976-6.808c-.083-.565-.584-.992-1.167-.992-.343 0-.656.139-.884.392-.32.355-.78.559-1.264.559h-3.42c-.483 0-.943-.203-1.263-.558-.229-.254-.542-.393-.885-.393-.583 0-1.084.427-1.167.992l-.974 6.78c-.003.229.301.287.398.127l1.787-2.889c.313-.499.873-.81 1.464-.81z"/><path d="m12.25 25h-.5c-1.517 0-2.75-1.233-2.75-2.75v-10.5c0-1.517 1.233-2.75 2.75-2.75h10.5c1.517 0 2.75 1.233 2.75 2.75v4.5h-1.5v-4.5c0-.689-.561-1.25-1.25-1.25h-10.5c-.689 0-1.25.561-1.25 1.25v10.5c0 .689.561 1.25 1.25 1.25h.5z"/><path d="m13.75 22c-.965 0-1.75-.785-1.75-1.75v-6.5c0-.965.785-1.75 1.75-1.75h3.086c.468 0 .907.182 1.237.513l3.414 3.414c.331.33.513.77.513 1.237h-1.5c0-.066-.026-.13-.073-.177l-3.414-3.414c-.047-.047-.11-.073-.177-.073h-3.086c-.138 0-.25.112-.25.25v6.5c0 .138.112.25.25.25z"/><path d="m16.25 6.75h1.5v2.75h-1.5z"/><path d="m12 6.75h1.5v2.75h-1.5z"/><path d="m20.5 6.75h1.5v2.75h-1.5z"/><path d="m6.75 16.25h2.75v1.5h-2.75z"/><path d="m6.75 12h2.75v1.5h-2.75z"/><path d="m6.75 20.5h2.75v1.5h-2.75z"/><path d="m24.5 12h2.75v1.5h-2.75z"/></svg>