<svg height="512" viewBox="0 0 512 512" width="512" xmlns="http://www.w3.org/2000/svg" xmlns:xlink="http://www.w3.org/1999/xlink"><linearGradient id="a" gradientUnits="userSpaceOnUse" x1="-72.385" x2="429.732" y1="408.385" y2="-93.732" data-name="New Gradient Swatch 1"><stop offset="0" stop-color="#003f8a"/><stop offset=".518" stop-color="#00d7df"/><stop offset="1" stop-color="#006df0"/></linearGradient><linearGradient id="b" x1="-81.329" x2="420.788" xlink:href="#a" y1="399.441" y2="-102.676"/><linearGradient id="c" x1="-90.274" x2="411.843" xlink:href="#a" y1="390.496" y2="-111.621"/><linearGradient id="d" x1="29.269" x2="531.386" xlink:href="#a" y1="510.039" y2="7.922"/><linearGradient id="e" x1="51.615" x2="553.732" xlink:href="#a" y1="532.385" y2="30.268"/><linearGradient id="f" x1="35.615" x2="537.732" xlink:href="#a" y1="516.385" y2="14.268"/><linearGradient id="g" x1="23.615" x2="525.732" xlink:href="#a" y1="504.385" y2="2.268"/><linearGradient id="h" x1="105.615" x2="607.732" xlink:href="#a" y1="586.385" y2="84.268"/><linearGradient id="i" x1="41.615" x2="543.732" xlink:href="#a" y1="522.385" y2="20.268"/><linearGradient id="j" x1="169.615" x2="671.732" xlink:href="#a" y1="650.385" y2="148.268"/><linearGradient id="k" x1="-74.385" x2="427.732" xlink:href="#a" y1="406.385" y2="-95.732"/><linearGradient id="l" x1="-42.385" x2="459.732" xlink:href="#a" y1="438.385" y2="-63.732"/><linearGradient id="m" x1="-28.385" x2="473.732" xlink:href="#a" y1="452.385" y2="-49.732"/><linearGradient id="n" x1="55.615" x2="557.732" xlink:href="#a" y1="536.385" y2="34.268"/><linearGradient id="p" x1="91.615" x2="593.732" xlink:href="#a" y1="572.385" y2="70.268"/><linearGradient id="q" x1="127.615" x2="629.732" xlink:href="#a" y1="608.385" y2="106.268"/><linearGradient id="r" x1="-32.385" x2="469.732" xlink:href="#a" y1="448.385" y2="-53.732"/><g><circle cx="256" cy="80" fill="url(#a)" r="8"/><path d="m272 70.111a8 8 0 0 0 5.338-13.961 32 32 0 0 0 -42.672 0 8 8 0 0 0 10.671 11.922 16 16 0 0 1 21.33 0 7.973 7.973 0 0 0 5.333 2.039z" fill="url(#b)"/><path d="m229.335 50.184a40 40 0 0 1 53.33 0 8 8 0 1 0 10.67-11.922 56 56 0 0 0 -74.67 0 8 8 0 1 0 10.67 11.922z" fill="url(#c)"/><path d="m264 360a40 40 0 0 0 24-72v-80a24 24 0 0 0 -48 0v80a40 40 0 0 0 24 72zm-11.994-60.8a8 8 0 0 0 3.994-6.92v-84.28a8 8 0 1 1 16 0v84.28a8 8 0 0 0 3.994 6.925 24 24 0 1 1 -23.988 0z" fill="url(#d)"/><circle cx="264" cy="320" fill="url(#e)" r="8"/><path d="m476 104h-440a28.031 28.031 0 0 0 -28 28v328a28.031 28.031 0 0 0 28 28h440a28.031 28.031 0 0 0 28-28v-328a28.031 28.031 0 0 0 -28-28zm12 356a12.01 12.01 0 0 1 -12 12h-440a12.01 12.01 0 0 1 -12-12v-328a12.01 12.01 0 0 1 12-12h440a12.01 12.01 0 0 1 12 12z" fill="url(#f)"/><path d="m456 144h-400a8 8 0 0 0 -8 8v240a8 8 0 0 0 8 8h400a8 8 0 0 0 8-8v-240a8 8 0 0 0 -8-8zm-8 240h-384v-224h384z" fill="url(#g)"/><path d="m288 416h-64a8 8 0 0 0 -8 8v24a8 8 0 0 0 8 8h64a8 8 0 0 0 8-8v-24a8 8 0 0 0 -8-8zm-8 24h-48v-8h48z" fill="url(#h)"/><path d="m160 416h-64a8 8 0 0 0 -8 8v24a8 8 0 0 0 8 8h64a8 8 0 0 0 8-8v-24a8 8 0 0 0 -8-8zm-8 24h-48v-8h48z" fill="url(#i)"/><path d="m416 416h-64a8 8 0 0 0 -8 8v24a8 8 0 0 0 8 8h64a8 8 0 0 0 8-8v-24a8 8 0 0 0 -8-8zm-8 24h-48v-8h48z" fill="url(#j)"/><path d="m80 280h40a8 8 0 0 0 8-8v-80a8 8 0 0 0 -8-8h-40a8 8 0 0 0 -8 8v80a8 8 0 0 0 8 8zm8-80h24v64h-24z" fill="url(#k)"/><path d="m144 280h40a8 8 0 0 0 8-8v-80a8 8 0 0 0 -8-8h-40a8 8 0 0 0 -8 8v80a8 8 0 0 0 8 8zm8-80h24v64h-24z" fill="url(#l)"/><path d="m208 232h16a8 8 0 0 0 0-16h-8v-16h8a8 8 0 0 0 0-16h-16a8 8 0 0 0 -8 8v32a8 8 0 0 0 8 8z" fill="url(#m)"/><path d="m320 376a8 8 0 0 0 8-8v-192a8 8 0 0 0 -16 0v192a8 8 0 0 0 8 8z" fill="url(#n)"/><path d="m352 232h80a8 8 0 0 0 8-8v-48a8 8 0 0 0 -8-8h-80a8 8 0 0 0 -8 8v48a8 8 0 0 0 8 8zm8-48h64v32h-64z" fill="url(#n)"/><path d="m352 304h80a8 8 0 0 0 8-8v-48a8 8 0 0 0 -8-8h-80a8 8 0 0 0 -8 8v48a8 8 0 0 0 8 8zm8-48h64v32h-64z" fill="url(#p)"/><path d="m352 376h80a8 8 0 0 0 8-8v-48a8 8 0 0 0 -8-8h-80a8 8 0 0 0 -8 8v48a8 8 0 0 0 8 8zm8-48h64v32h-64z" fill="url(#q)"/><g fill="url(#r)"><path d="m80 312h64a8 8 0 0 0 0-16h-64a8 8 0 0 0 0 16z"/><path d="m80 336h16a8 8 0 0 0 0-16h-16a8 8 0 0 0 0 16z"/></g></g></svg>