<svg id="_x31__x2C_5" height="512" viewBox="0 0 24 24" width="512" xmlns="http://www.w3.org/2000/svg"><path d="m19.92 11.79c-1.17-1.88-2.38-2.42-4.6-1.79-1.29.37-2.55.63-3.82.65s-2.53-.28-3.82-.65c-2.22-.63-3.43-.09-4.6 1.79-1.54 2.48-2.47 5.15-2.31 8.06.17 3.17 2.52 4.32 5.31 2.61 1.13-.69 2.19-1.4 3.26-2.14.63-.43 1.38-.67 2.16-.67s1.53.24 2.16.67c1.07.74 2.13 1.45 3.26 2.14 2.79 1.71 5.14.56 5.31-2.61.16-2.91-.77-5.58-2.31-8.06z" fill="#607d8b"/><path d="m17.5 18.5c-1.103 0-2-.897-2-2s.897-2 2-2 2 .897 2 2-.897 2-2 2z" fill="#fff"/><path d="m3.644 24.003c-.577 0-1.12-.128-1.612-.387-1.203-.632-1.917-1.955-2.013-3.723-.153-2.846.639-5.625 2.423-8.496 1.374-2.213 2.948-2.826 5.44-2.114 1.167.333 2.412.656 3.604.617 1.068-.019 2.223-.215 3.632-.617 2.492-.713 4.067-.098 5.441 2.114 1.784 2.871 2.576 5.65 2.423 8.496-.096 1.769-.811 3.091-2.013 3.723-1.248.657-2.826.475-4.443-.515-1.198-.732-2.333-1.503-3.287-2.161-1.023-.706-2.454-.706-3.478 0-.953.658-2.089 1.429-3.287 2.161-.979.599-1.944.902-2.83.902zm2.46-13.508c-.996 0-1.654.511-2.389 1.693-1.616 2.601-2.335 5.094-2.199 7.623.066 1.221.497 2.1 1.213 2.477.761.401 1.814.234 2.963-.467 1.166-.713 2.281-1.47 3.217-2.116 1.526-1.054 3.654-1.054 5.181 0 .937.646 2.051 1.403 3.217 2.116 1.149.702 2.202.868 2.963.467.717-.376 1.147-1.256 1.213-2.477.136-2.529-.583-5.022-2.199-7.623-1.025-1.651-1.904-1.992-3.754-1.463-1.539.439-2.815.653-4.018.675-1.387.024-2.765-.31-4.043-.675-.524-.15-.971-.23-1.365-.23z"/><path d="m7.25 17.25h-3.5c-.414 0-.75-.336-.75-.75s.336-.75.75-.75h3.5c.414 0 .75.336.75.75s-.336.75-.75.75z"/><path d="m5.5 19c-.414 0-.75-.336-.75-.75v-3.5c0-.414.336-.75.75-.75s.75.336.75.75v3.5c0 .414-.336.75-.75.75z"/><path d="m11.5 11c-.414 0-.75-.336-.75-.75v-1.5c0-2.068 1.682-3.75 3.75-3.75h5.75c1.241 0 2.25-1.009 2.25-2.25v-2c0-.414.336-.75.75-.75s.75.336.75.75v2c0 2.068-1.682 3.75-3.75 3.75h-5.75c-1.241 0-2.25 1.009-2.25 2.25v1.5c0 .414-.336.75-.75.75z"/><path d="m17.5 19c-1.378 0-2.5-1.122-2.5-2.5s1.122-2.5 2.5-2.5 2.5 1.122 2.5 2.5-1.122 2.5-2.5 2.5zm0-3.5c-.551 0-1 .449-1 1s.449 1 1 1 1-.449 1-1-.449-1-1-1z"/></svg>