<svg height="512pt" viewBox="-31 0 512 512" width="512pt" xmlns="http://www.w3.org/2000/svg"><path d="m150 436h150v76h-150zm0 0" fill="#47568c"/><path d="m225 436h75v76h-75zm0 0" fill="#2c3b73"/><g fill="#fdbf00"><path d="m0 211h75v30h-75zm0 0"/><path d="m108.328125 321.460938 21.210937 21.210937-53.027343 53.027344-21.210938-21.210938zm0 0"/><path d="m76.507812 56.296875 53.027344 53.027344-21.210937 21.210937-53.027344-53.027344zm0 0"/></g><path d="m375 211h75v30h-75zm0 0" fill="#ff9100"/><path d="m373.488281 56.296875 21.210938 21.210937-53.027344 53.023438-21.210937-21.210938zm0 0" fill="#ff9100"/><path d="m341.675781 321.460938 53.027344 53.023437-21.210937 21.210937-53.027344-53.023437zm0 0" fill="#ff9100"/><path d="m210 0h30v76h-30zm0 0" fill="#fdbf00"/><path d="m225 0h15v76h-15zm0 0" fill="#ff9100"/><path d="m390 226c0 45.898438-18.300781 88.5-51.898438 120-24.601562 23.097656-38.101562 51.898438-38.101562 80.699219v9.300781h-150v-8.101562c0-31.199219-12-59.097657-32.699219-77.097657-44.402343-38.101562-64.800781-95.703125-54.902343-153.902343 11.402343-65.699219 62.402343-118.796876 127.203124-132.296876 11.699219-2.402343 23.699219-3.601562 35.398438-3.601562 37.800781 0 74.398438 12.597656 104.097656 36.898438 38.703125 31.5 60.902344 78.300781 60.902344 128.101562zm0 0" fill="#ffda2d"/><path d="m390 226c0 45.898438-18.300781 88.5-51.898438 120-24.601562 23.097656-38.101562 51.898438-38.101562 80.699219v9.300781h-75v-375c37.800781 0 74.398438 12.597656 104.097656 36.898438 38.703125 31.5 60.902344 78.300781 60.902344 128.101562zm0 0" fill="#fdbf00"/><path d="m195 211h60v30h-60zm0 0"/><path d="m210 361h30v75h-30zm0 0" fill="#47568c"/><path d="m225 361h15v75h-15zm0 0" fill="#2c3b73"/><path d="m270 211-43.199219 30-1.800781-1.199219-45-28.800781 45-90zm0 0" fill="#e0f4ff"/><path d="m226.800781 241-1.800781-1.199219v-118.800781l45 90zm0 0" fill="#bbdcff"/><path d="m180 211h90v165h-90zm0 0" fill="#fa5e97"/><path d="m225 211h45v165h-45zm0 0" fill="#d94f88"/><path d="m120 421h210v30h-210zm0 0" fill="#61729b"/><path d="m225 421h105v30h-105zm0 0" fill="#47568c"/></svg>