<svg id="Capa_1" enable-background="new 0 0 512 512" height="512" viewBox="0 0 512 512" width="512" xmlns="http://www.w3.org/2000/svg"><g><g><g><g><g><path d="m449.175 44.409c0-20.324-16.476-36.799-36.799-36.799h-367.939l36.937 36.936.017 423.045c0 20.324 16.476 36.799 36.799 36.799h331.001z" fill="#fffbe4"/><path d="m449.175 44.409c0-20.324-16.476-36.799-36.799-36.799h-65.321c20.324 0 36.799 16.476 36.799 36.799l.015 459.981h65.321z" fill="#fbf4c6"/><path d="m467.469 504.39h-349.159c20.399 0 36.937-16.537 36.937-36.936v-33.735c0-7.127 5.778-12.905 12.905-12.905h323.351c7.127 0 12.905 5.778 12.905 12.905v33.735c-.002 20.399-16.539 36.936-36.939 36.936z" fill="#eabc6b"/><path d="m491.501 420.814h-52.416v46.64c0 20.399-16.537 36.936-36.936 36.936h65.321c20.399 0 36.936-16.537 36.936-36.936v-33.735c0-7.128-5.778-12.905-12.905-12.905z" fill="#ebb044"/></g><path d="m44.437 7.61c-20.4 0-36.937 16.537-36.937 36.936v72.929c0 6.386 5.177 11.563 11.563 11.563h62.31v-84.492c0-20.399-16.537-36.936-36.936-36.936z" fill="#eabc6b"/></g></g><g><path d="m480.947 181.163 19.355-19.355c5.611-5.611 5.611-14.708 0-20.318l-5.127-5.127c-5.611-5.611-14.708-5.611-20.318 0l-19.355 19.355z" fill="#5766cb"/><g><g><path d="m302.575 364.316-39.472 15.209c-3.732 1.438-7.401-2.231-5.963-5.963l15.209-39.472c2.519-6.537 6.379-12.473 11.333-17.426l164.766-164.766c4.365-4.365 11.443-4.365 15.808 0l20.512 20.512c4.365 4.365 4.365 11.443 0 15.808l-164.767 164.766c-4.953 4.953-10.889 8.814-17.426 11.332z" fill="#dd636e"/></g><g><path d="m302.575 364.316-39.472 15.209c-3.732 1.438-7.401-2.231-5.963-5.963l15.209-39.472c2.519-6.537 6.379-12.473 11.333-17.426l36.32 36.32c-4.954 4.953-10.89 8.814-17.427 11.332z" fill="#938bc6"/></g></g></g></g><g><path d="m149.346 155.001c4.143 0 7.5-3.358 7.5-7.5v-77.164h15.972c4.143 0 7.5-3.358 7.5-7.5s-3.357-7.5-7.5-7.5h-46.756c-4.143 0-7.5 3.358-7.5 7.5s3.357 7.5 7.5 7.5h15.784v77.164c0 4.142 3.357 7.5 7.5 7.5z"/><path d="m216.485 70.337h108.516c4.143 0 7.5-3.358 7.5-7.5s-3.357-7.5-7.5-7.5h-108.516c-4.143 0-7.5 3.358-7.5 7.5s3.357 7.5 7.5 7.5z"/><path d="m216.485 112.669h108.516c4.143 0 7.5-3.358 7.5-7.5s-3.357-7.5-7.5-7.5h-108.516c-4.143 0-7.5 3.358-7.5 7.5s3.357 7.5 7.5 7.5z"/><path d="m216.485 155.001h108.516c4.143 0 7.5-3.358 7.5-7.5s-3.357-7.5-7.5-7.5h-108.516c-4.143 0-7.5 3.358-7.5 7.5s3.357 7.5 7.5 7.5z"/><path d="m126.062 197.333h198.939c4.143 0 7.5-3.358 7.5-7.5s-3.357-7.5-7.5-7.5h-198.939c-4.143 0-7.5 3.358-7.5 7.5s3.357 7.5 7.5 7.5z"/><path d="m491.501 413.314h-34.813l-.003-94.634c0-4.143-3.358-7.5-7.5-7.5-4.143 0-7.5 3.358-7.5 7.5l.003 94.634h-273.537c-11.251 0-20.405 9.154-20.405 20.405v33.736c0 16.231-13.205 29.436-29.436 29.436h-.12c-16.156 0-29.299-13.143-29.299-29.299l-.018-338.553v-84.493c0-11.283-4.234-21.591-11.188-29.436h334.692c16.156 0 29.298 13.144 29.298 29.3l.004 70.497c0 4.142 3.358 7.5 7.5 7.5 4.143 0 7.5-3.358 7.5-7.501l-.004-70.496c0-24.427-19.872-44.3-44.299-44.3h-367.94c-24.502 0-44.436 19.934-44.436 44.436v72.929c0 10.511 8.552 19.063 19.064 19.063h27.247c4.143 0 7.5-3.358 7.5-7.5s-3.357-7.5-7.5-7.5h-27.247c-2.24 0-4.064-1.823-4.064-4.063v-72.929c0-16.231 13.206-29.436 29.436-29.436s29.436 13.205 29.436 29.436v84.492s0 0 0 0l.018 338.552c0 24.427 19.872 44.299 44.3 44.299h.12.002 349.157c24.502 0 44.436-19.934 44.436-44.436v-33.736c.001-11.25-9.153-20.403-20.404-20.403zm5.405 54.14c0 16.231-13.205 29.436-29.436 29.436h-315.899c6.951-7.844 11.175-18.156 11.175-29.436v-33.736c0-2.98 2.425-5.404 5.404-5.404h323.35c2.98 0 5.404 2.424 5.404 5.404v33.736z"/><path d="m443.143 146.594-164.765 164.767c-5.732 5.732-10.114 12.472-13.028 20.033l-15.208 39.471c-1.721 4.465-.646 9.536 2.736 12.92 3.341 3.341 8.399 4.481 12.921 2.739l39.471-15.209c7.563-2.914 14.304-7.297 20.035-13.028l116.377-116.377.002 29.516-21.588 21.588c-2.929 2.929-2.929 7.678 0 10.607s7.677 2.929 10.608 0l68.502-68.502c7.978-7.979 7.978-20.96-.001-28.938l-10.897-10.897 1.763-1.763c4.376-4.377 6.102-10.4 5.218-16.093l10.317-10.317c8.526-8.526 8.526-22.399-.001-30.926l-5.126-5.126c-8.527-8.527-22.398-8.525-30.925 0l-10.308 10.308c-6.114-.947-11.945 1.07-16.103 5.227zm10.607 10.607c1.455-1.455 3.784-1.417 5.2 0l20.513 20.513c1.434 1.434 1.434 3.767 0 5.201-7.614 7.614-147.855 147.855-159.462 159.462l-25.713-25.713zm-153.872 200.116-33.4 12.87 12.868-33.401c1.243-3.227 2.86-6.244 4.811-9.04l24.761 24.761c-2.795 1.95-5.813 3.567-9.04 4.81zm188.721-140.529c2.13 2.129 2.13 5.595 0 7.724l-31.915 31.915-.002-29.516 21.02-21.02zm1.273-75.121 5.126 5.126c2.678 2.678 2.678 7.034 0 9.712l-7.765 7.765-14.838-14.838 7.765-7.766c2.677-2.678 7.034-2.677 9.712.001z"/></g></g></svg>